<svg width="21" height="16" viewBox="0 0 21 16" fill="none" xmlns="http://www.w3.org/2000/svg">
<path d="M9.25052 9.60129C9.70052 9.91429 10.3005 9.91429 10.7505 9.60129L19.8385 4.32029C19.8925 4.28316 19.9358 4.23253 19.9642 4.17343C19.9925 4.11434 20.0049 4.04886 20 3.98351C19.9952 3.91816 19.9733 3.85522 19.9365 3.80096C19.8997 3.74671 19.8494 3.70303 19.7905 3.67429L10.5855 0.13729C10.4037 0.0469903 10.2035 0 10.0005 0C9.79754 0 9.59731 0.0469903 9.41552 0.13729L0.210522 3.67429C0.151629 3.70303 0.101297 3.74671 0.0645406 3.80096C0.0277841 3.85522 0.00588695 3.91816 0.00103103 3.98351C-0.00382489 4.04886 0.00853001 4.11434 0.0368646 4.17343C0.0651992 4.23253 0.108524 4.28316 0.162522 4.32029L9.25052 9.60129V9.60129ZM19.7905 8.81129L17.3045 7.57829L11.5795 10.9053C11.1105 11.2143 10.5655 11.3763 10.0005 11.3763C9.43552 11.3763 8.89052 11.2133 8.42152 10.9053L2.70052 7.57629L0.210522 8.81029C0.151629 8.83903 0.101297 8.88271 0.0645406 8.93696C0.0277841 8.99122 0.00588695 9.05415 0.00103103 9.11951C-0.00382489 9.18486 0.00853001 9.25034 0.0368646 9.30943C0.0651992 9.36853 0.108524 9.41916 0.162522 9.45629L9.25052 15.7653C9.70052 16.0783 10.3005 16.0783 10.7505 15.7653L19.8385 9.45629C19.8925 9.41929 19.9359 9.36875 19.9643 9.30973C19.9926 9.25071 20.005 9.18528 20.0001 9.11998C19.9953 9.05468 19.9734 8.9918 19.9366 8.93763C19.8998 8.88345 19.8494 8.83989 19.7905 8.81129V8.81129Z" />
</svg>
