<svg width="20" height="20" viewBox="0 0 20 20" fill="none" xmlns="http://www.w3.org/2000/svg">
<path d="M6.69686 9.99889C6.69774 9.12341 7.04592 8.28403 7.66498 7.66498C8.28403 7.04592 9.12341 6.69774 9.99889 6.69686C10.8741 6.69804 11.713 7.04638 12.3317 7.66544C12.9503 8.28449 13.2981 9.1237 13.2987 9.99889C13.2981 10.8741 12.9503 11.7133 12.3317 12.3323C11.713 12.9514 10.8741 13.2997 9.99889 13.3009C9.12341 13.3 8.28403 12.9519 7.66498 12.3328C7.04592 11.7137 6.69774 10.8744 6.69686 9.99889V9.99889ZM17.1166 8.32119C16.9359 7.55553 16.6318 6.82441 16.216 6.15653L17.2511 4.51552C17.4053 4.26951 17.4714 3.9785 17.4388 3.69004C17.4061 3.40158 17.2766 3.13271 17.0714 2.92737C16.8662 2.72203 16.5974 2.59236 16.309 2.55953C16.0205 2.52671 15.7295 2.59267 15.4834 2.74665L13.8413 3.78173C13.1736 3.36551 12.4424 3.06131 11.6766 2.88118L11.2497 0.993351C11.184 0.71086 11.0246 0.45892 10.7975 0.278549C10.5704 0.0981778 10.2889 0 9.99889 0C9.70886 0 9.42738 0.0981778 9.20027 0.278549C8.97316 0.45892 8.81379 0.71086 8.74812 0.993351L8.32008 2.8834C7.54182 3.06574 6.81471 3.37259 6.1543 3.78173L4.5144 2.74776C4.2684 2.59363 3.97739 2.52748 3.68893 2.56013C3.40047 2.59277 3.1316 2.72228 2.92626 2.92749C2.72092 3.1327 2.59125 3.40148 2.55842 3.68992C2.5256 3.97837 2.59156 4.26941 2.74554 4.51552L3.77951 6.15653C3.36453 6.82518 3.06042 7.55655 2.87895 8.3223L0.993351 8.74812C0.71086 8.81379 0.45892 8.97316 0.278549 9.20027C0.0981778 9.42738 0 9.70886 0 9.99889C0 10.2889 0.0981778 10.5704 0.278549 10.7975C0.45892 11.0246 0.71086 11.184 0.993351 11.2497L2.88118 11.6766C3.06574 12.4548 3.37259 13.182 3.78173 13.8424L2.74776 15.4823C2.59363 15.7283 2.52748 16.0193 2.56013 16.3077C2.59277 16.5962 2.72228 16.8651 2.92749 17.0704C3.1327 17.2757 3.40148 17.4054 3.68992 17.4382C3.97837 17.4711 4.26941 17.4051 4.51552 17.2511L6.15653 16.2172C6.82496 16.6323 7.55642 16.9361 8.3223 17.1166L8.74923 19.0055C8.8149 19.288 8.97427 19.54 9.20138 19.7203C9.42849 19.9007 9.70998 19.9989 10 19.9989C10.29 19.9989 10.5715 19.9007 10.7986 19.7203C11.0257 19.54 11.1851 19.288 11.2508 19.0055L11.6777 17.1155C12.4435 16.9354 13.1747 16.6312 13.8424 16.2149L15.4834 17.2511C15.7292 17.4078 16.0211 17.4759 16.3108 17.4442C16.6006 17.4126 16.8709 17.283 17.0771 17.077C17.2833 16.8709 17.413 16.6007 17.4448 16.311C17.4767 16.0212 17.4087 15.7293 17.2522 15.4834L16.2172 13.8413C16.6329 13.1734 16.937 12.4422 17.1177 11.6766L19.0066 11.2497C19.2891 11.184 19.5411 11.0246 19.7215 10.7975C19.9018 10.5704 20 10.2889 20 9.99889C20 9.70886 19.9018 9.42738 19.7215 9.20027C19.5411 8.97316 19.2891 8.81379 19.0066 8.74812L17.1166 8.32119V8.32119Z"/>
</svg>
