<svg width="17" height="20" viewBox="0 0 17 20" fill="none" xmlns="http://www.w3.org/2000/svg">
<path d="M14.2169 5.3012H2.16867C0.963855 5.3012 0 6.26506 0 7.46988V17.8313C0 19.0361 0.963855 20 2.16867 20H14.2169C15.4217 20 16.3855 19.0361 16.3855 17.8313V7.46988C16.3855 6.26506 15.4217 5.3012 14.2169 5.3012ZM11.6386 11.1566C11.6386 11.5663 11.3253 11.8795 10.9157 11.8795H5.46988C5.06024 11.8795 4.74699 11.5663 4.74699 11.1566V9.3253C4.74699 8.91566 5.06024 8.60241 5.46988 8.60241C5.87952 8.60241 6.19277 8.91566 6.19277 9.3253V10.4337H10.1928V9.3253C10.1928 8.91566 10.506 8.60241 10.9157 8.60241C11.3253 8.60241 11.6386 8.91566 11.6386 9.3253V11.1566V11.1566ZM2.16867 4.09639H14.2169C14.6265 4.09639 14.9398 3.78313 14.9398 3.37349C14.9398 2.96386 14.6265 2.6506 14.2169 2.6506H2.16867C1.75904 2.6506 1.44578 2.96386 1.44578 3.37349C1.44578 3.78313 1.75904 4.09639 2.16867 4.09639ZM3.37349 1.44578H13.012C13.4217 1.44578 13.7349 1.13253 13.7349 0.722892C13.7349 0.313253 13.4217 0 13.012 0H3.37349C2.96386 0 2.6506 0.313253 2.6506 0.722892C2.6506 1.13253 2.96386 1.44578 3.37349 1.44578Z" />
</svg>
