<svg width="20" height="19" viewBox="0 0 20 19" fill="none" xmlns="http://www.w3.org/2000/svg">
<path d="M10.5986 4.24173L11.0477 5.62219C11.4728 5.26084 11.9662 4.98862 12.4986 4.8217C13.0927 4.62838 13.6173 4.51963 14.0915 4.45721L13.6586 3.12508C13.1186 3.20284 12.5864 3.3268 12.0677 3.49562C11.542 3.66601 11.0463 3.91777 10.5986 4.24173V4.24173ZM11.532 7.11642L11.9811 8.49688C12.4062 8.13553 12.8996 7.86331 13.432 7.6964C14.0261 7.50307 14.5507 7.39433 15.0249 7.3319L14.592 5.99977C14.052 6.07753 13.5198 6.2015 13.0011 6.37031C12.4751 6.54008 11.9793 6.79189 11.532 7.11642V7.11642ZM12.4664 9.99011L12.9155 11.3706C13.3406 11.0092 13.834 10.737 14.3664 10.5701C14.9605 10.3768 15.4851 10.268 15.9593 10.2056L15.5264 8.87346C14.9864 8.95121 14.4542 9.07518 13.9355 9.244C13.4095 9.41377 12.9137 9.66558 12.4664 9.99011ZM5.35569 12.1771L5.78865 13.5092C6.2685 13.2497 6.77143 13.0353 7.29095 12.8688C7.81984 12.6914 8.37897 12.6219 8.93521 12.6644L8.48613 11.284C7.9339 11.2848 7.3852 11.3721 6.85999 11.5427C6.34123 11.7105 5.83793 11.9227 5.35569 12.1771V12.1771ZM3.48789 6.42871L3.92086 7.76084C4.4009 7.50171 4.90379 7.28735 5.42315 7.12045C5.95205 6.94301 6.51117 6.8735 7.06741 6.91605L6.61934 5.53459C6.06674 5.53581 5.51772 5.62346 4.9922 5.79437C4.47344 5.96212 3.97013 6.17436 3.48789 6.42871V6.42871ZM4.42129 9.3034L4.85425 10.6355C5.3341 10.376 5.83702 10.1616 6.35654 9.99514C6.88544 9.8177 7.44457 9.74819 8.00081 9.79074L7.55274 8.40928C7.0005 8.41007 6.4518 8.49738 5.9266 8.66805C5.40748 8.83613 4.90384 9.0487 4.42129 9.3034V9.3034ZM11.0708 0.429616C9.74797 0.852257 8.64402 1.77757 7.99678 3.00627C6.75123 2.3929 5.31456 2.29346 3.99638 2.72937C1.45597 3.55503 0 5.37449 0 5.37449L4.12325 18.0483C4.25011 18.438 4.7737 18.5286 5.0073 18.1923C5.50974 17.4683 6.47737 16.5229 8.28677 15.9348C10.0166 15.373 11.2762 15.9892 11.967 16.5168C12.2409 16.7263 12.6335 16.5772 12.7342 16.247C12.988 15.4143 13.6475 14.1929 15.3622 13.6361C17.1736 13.047 18.5128 13.2444 19.3455 13.5354C19.7332 13.6703 20.1007 13.2917 19.9748 12.9021L15.8586 0.221189C15.8586 0.221189 13.6112 -0.395033 11.0708 0.429616ZM10.9571 14.3711C9.92341 14.06 8.81893 14.0755 7.79439 14.4154C6.53477 14.8242 5.65272 15.371 5.07678 15.8291L1.80939 5.77826C2.16986 5.41779 3.00458 4.72907 4.48976 4.24677C5.88834 3.79265 7.03519 4.18132 7.79137 4.62737L10.9571 14.3711ZM17.8986 11.6636C17.1626 11.6314 16.1275 11.7079 14.8678 12.1177C13.8392 12.4445 12.9365 13.081 12.2831 13.9402L9.11746 4.19642C9.46584 3.3909 10.1646 2.40213 11.5642 1.94802C13.0484 1.46571 14.1288 1.53217 14.6322 1.61171L17.8986 11.6636V11.6636Z"/>
</svg>
