<svg width="20" height="15" viewBox="0 0 20 15" fill="none" xmlns="http://www.w3.org/2000/svg">
<path d="M20 12.9367V14.6116H0V11.9776C0.0263627 11.716 0.119843 11.4655 0.271389 11.2506C0.422936 11.0356 0.627415 10.8634 0.865031 10.7507C1.27194 10.5501 1.69722 10.3892 2.13497 10.2701C2.15951 10.2578 3.50716 9.90198 4.14928 9.56252L4.19632 9.53389C4.26423 9.48976 4.31978 9.42904 4.35771 9.35748C4.39563 9.28592 4.4147 9.20587 4.41309 9.12489V8.32734C2.26994 8.34575 1.64008 7.42755 1.64008 7.42755C1.64008 7.42755 2.86708 7.40914 2.78937 4.17806C2.71166 0.946974 4.20245 0.413232 4.75869 0.202598C6.37628 -0.410899 7.18814 0.564561 7.18814 0.564561C9.06135 0.390737 9.57873 2.43777 9.34969 4.77111C9.12065 7.10444 10.4008 7.4664 10.4008 7.4664C9.52147 8.3662 7.66462 8.30894 7.66462 8.30894V9.12693C7.66282 9.20794 7.6818 9.28807 7.71974 9.35966C7.75769 9.43126 7.81334 9.49194 7.88139 9.53593L7.93865 9.5707C8.57873 9.91016 9.92843 10.266 9.95297 10.2783C10.2038 10.3459 10.4503 10.4285 10.6912 10.5257C11.3476 10.131 11.8569 9.87335 12.0266 9.79155C12.045 9.78266 12.0606 9.76872 12.0715 9.75135C12.0823 9.73398 12.088 9.71388 12.0879 9.6934V8.53184C11.9201 8.24687 11.8057 7.93361 11.7505 7.60751C11.6217 7.59728 11.4519 7.41528 11.2679 6.76906C11.0164 5.88358 11.2843 5.74657 11.5092 5.77315C11.4667 5.65467 11.4339 5.53293 11.411 5.40914C11.3223 5.02497 11.3223 4.62562 11.411 4.24145C11.5238 3.78829 11.7595 3.37503 12.092 3.04718C12.2793 2.8477 12.4909 2.67251 12.7219 2.52571C12.9107 2.39309 13.1172 2.28776 13.3354 2.21282C13.5132 2.15416 13.6984 2.12044 13.8855 2.11262C14.3705 2.05963 14.8598 2.16279 15.2822 2.4071C15.5624 2.55196 15.7978 2.77042 15.9632 3.039C15.9632 3.039 17.092 3.11875 16.7117 5.41323C16.6888 5.53702 16.656 5.65875 16.6135 5.77724C16.8384 5.75679 17.1043 5.88767 16.8548 6.77315C16.6708 7.42141 16.501 7.60137 16.3722 7.6116C16.3158 7.93702 16.1993 8.2491 16.0286 8.53184V9.69749C16.0285 9.71797 16.0342 9.73807 16.0451 9.75544C16.056 9.77281 16.0715 9.78675 16.09 9.79564C17.3257 10.4145 18.4913 11.1645 19.5665 12.0329C19.7008 12.1424 19.8092 12.2801 19.8842 12.4364C19.9591 12.5926 19.9987 12.7635 20 12.9367V12.9367Z" />
</svg>
