<svg width="20" height="20" viewBox="0 0 20 20" fill="none" xmlns="http://www.w3.org/2000/svg">
<path d="M7.98013 3.71481C8.61674 3.51039 9.29548 3.4 10 3.4C10.8297 3.4 11.6237 3.5531 12.3551 3.8326L10 0L7.98013 3.71481Z" fill="black"/>
<path d="M7.30451 3.97373L2.92895 2.92895L4.12761 6.98449C4.81183 5.65472 5.93445 4.58748 7.30451 3.97373Z" fill="black"/>
<path d="M3.8326 7.64486L0 10L3.71481 12.0199C3.51039 11.3833 3.4 10.7045 3.4 10C3.4 9.17029 3.5531 8.37634 3.8326 7.64486Z" fill="black"/>
<path d="M3.97373 12.6955L2.92895 17.0711L6.98449 15.8724C5.65472 15.1882 4.58748 14.0655 3.97373 12.6955Z" fill="black"/>
<path d="M7.64486 16.1674L10 20L12.0199 16.2852C11.3833 16.4896 10.7045 16.6 10 16.6C9.17029 16.6 8.37634 16.4469 7.64486 16.1674Z" fill="black"/>
<path d="M12.6955 16.0263L17.0711 17.0711L15.8724 13.0155C15.1882 14.3453 14.0655 15.4125 12.6955 16.0263Z" fill="black"/>
<path d="M16.1674 12.3551L20 10L16.2852 7.98013C16.4896 8.61673 16.6 9.29548 16.6 10C16.6 10.8297 16.4469 11.6237 16.1674 12.3551Z" fill="black"/>
<path d="M16.0263 7.30451L17.0711 2.92895L13.0155 4.12761C14.3453 4.81183 15.4125 5.93445 16.0263 7.30451Z" fill="black"/>
<path d="M15 10C15 12.7614 12.7614 15 10 15C7.23858 15 5 12.7614 5 10C5 7.23858 7.23858 5 10 5C12.7614 5 15 7.23858 15 10Z" fill="black"/>
</svg>
