<svg width="20" height="19" viewBox="0 0 20 19" fill="none" xmlns="http://www.w3.org/2000/svg">
<path fill-rule="evenodd" clip-rule="evenodd" d="M10.2832 0.158632L19.8716 9.46506C20.1536 9.74707 19.9421 10.2406 19.5191 10.2406H16.4874V17.7139C16.4874 17.9254 16.2759 18.137 15.9939 18.137H12.3982C12.1162 18.137 11.9752 17.9254 11.9752 17.7139V13.9773C11.9752 13.3427 11.4817 12.9197 10.8472 12.9197H9.08459C8.52057 12.9197 8.02705 13.3427 8.02705 13.9773V17.7139C8.02705 17.9254 7.81554 18.137 7.60403 18.137H3.93786C3.72635 18.137 3.51484 17.9254 3.51484 17.7139V10.2406H0.412697C0.0601803 10.2406 -0.151329 9.74707 0.130684 9.46506L9.64862 0.158632C9.86013 -0.0528774 10.1421 -0.0528774 10.2832 0.158632Z" />
</svg>
