<svg width="17" height="20" viewBox="0 0 17 20" fill="none" xmlns="http://www.w3.org/2000/svg">
<path d="M13.5994 1.50368C11.4065 -0.0929466 9.84582 -0.0582123 9.25302 0.0378861C9.17174 0.0519487 9.09407 0.0820135 9.0245 0.126336C8.95494 0.170658 8.89487 0.228355 8.84778 0.296078L3.4987 7.67597L0.878568 11.2918C0.558126 11.7341 0.372367 12.2596 0.343659 12.8051L0.000946462 19.3166C-0.00489565 19.4246 0.0163777 19.5324 0.0628286 19.6301C0.109279 19.7277 0.179432 19.8123 0.266896 19.8759C0.354361 19.9395 0.456357 19.9803 0.563597 19.9944C0.670836 20.0086 0.77991 19.9957 0.880883 19.9569L6.96634 17.6297C7.47925 17.4328 7.92501 17.0913 8.24688 16.6467L10.3819 13.7001L16.2126 5.65443C16.2636 5.58463 16.3001 5.50535 16.32 5.42124C16.3399 5.33714 16.3427 5.24991 16.3284 5.16468C16.2311 4.55567 15.7646 3.0783 13.5994 1.50368V1.50368ZM6.98487 16.3283L4.61946 17.2418C4.57481 17.2594 4.52565 17.2619 4.47945 17.2489C4.43326 17.236 4.39257 17.2083 4.36358 17.17C4.00871 16.7143 3.58944 16.3125 3.11893 15.9775C2.65501 15.6339 2.14424 15.3587 1.6022 15.1601C1.55717 15.1437 1.51865 15.1132 1.49236 15.0731C1.46607 15.0331 1.45343 14.9856 1.45632 14.9378L1.59757 12.4068L2.23321 11.5326C2.23321 11.5326 3.65616 11.337 5.51329 12.6881C7.3681 14.0381 7.62166 15.453 7.62166 15.453L6.98487 16.3283V16.3283Z"/>
</svg>
