<svg width="25" height="25" viewBox="0 0 25 25" fill="none" xmlns="http://www.w3.org/2000/svg">
<path d="M14.4467 0.459855V24.5368C14.4424 26.9505 6.28658 19.1733 5.50901 18.491C4.3651 18.491 0 19.3069 0 17.3399V7.65144C0 5.6734 4.43676 6.50034 5.58627 6.50034C6.36308 5.81447 14.451 -1.94217 14.4467 0.459855Z"/>
<path d="M18.8563 21.2061C21.1315 19.173 22.5885 16.0482 22.5885 12.5439C22.5885 8.98529 21.086 5.81805 18.75 3.78802C22.3259 4.67556 25 8.24383 25 12.5107C25 16.7351 22.3788 20.2748 18.8563 21.2061Z"/>
<path d="M16.6716 19.3618C18.2381 17.7592 19.2413 15.2962 19.2413 12.5339C19.2413 9.72893 18.2068 7.2324 16.5984 5.63226C19.0605 6.33185 20.9017 9.14448 20.9017 12.5078C20.9017 15.8376 19.0969 18.6277 16.6716 19.3618Z"/>
</svg>
