<svg width="25" height="25" viewBox="0 0 25 25" fill="none" xmlns="http://www.w3.org/2000/svg">
<path fill-rule="evenodd" clip-rule="evenodd" d="M12.5 25C19.4036 25 25 19.4036 25 12.5C25 5.59644 19.4036 0 12.5 0C5.59644 0 0 5.59644 0 12.5C0 19.4036 5.59644 25 12.5 25ZM11.3057 12.5C11.0955 13.035 10.9904 13.7675 10.9904 14.6974H13.7229C13.7357 14.2134 13.8026 13.8153 13.9236 13.5032C14.0446 13.1847 14.2612 12.8758 14.5732 12.5764L15.672 11.5541C16.137 11.1019 16.4745 10.6592 16.6847 10.2261C16.8949 9.79297 17 9.31207 17 8.78345C17 7.57324 16.6083 6.64014 15.8248 5.98407C15.0478 5.328 13.949 5 12.5287 5C11.1019 5 9.99365 5.35669 9.2038 6.07007C8.414 6.7771 8.01276 7.76752 8 9.04138H11.2293C11.2421 8.56372 11.3663 8.18469 11.6019 7.90448C11.8376 7.62421 12.1465 7.48407 12.5287 7.48407C13.3567 7.48407 13.7707 7.96497 13.7707 8.92676C13.7707 9.32166 13.6465 9.68469 13.3981 10.0159C13.1561 10.3408 12.7994 10.7006 12.328 11.0955C11.8567 11.4904 11.5159 11.9586 11.3057 12.5ZM11.1051 16.4459C10.7675 16.7452 10.5988 17.1306 10.5988 17.6019C10.5988 18.0732 10.7675 18.4618 11.1051 18.7675C11.449 19.0669 11.8758 19.2166 12.3854 19.2166C12.8949 19.2166 13.3185 19.0669 13.6561 18.7675C14 18.4618 14.172 18.0732 14.172 17.6019C14.172 17.1306 14 16.7452 13.6561 16.4459C13.3185 16.1401 12.8949 15.9872 12.3854 15.9872C11.8758 15.9872 11.449 16.1401 11.1051 16.4459Z" fill="black"/>
</svg>
