<svg width="22" height="22" viewBox="0 0 22 22" fill="none" xmlns="http://www.w3.org/2000/svg">
<path d="M17.289 15.2007C18.4698 13.5796 19.1762 11.5719 19.1408 9.40389C19.0548 4.13162 14.6741 -0.0847831 9.4027 0.00129486C4.13133 0.0873729 -0.0847689 4.44416 0.00129452 9.71643C0.0873579 14.9887 4.44341 19.2055 9.71478 19.1194C11.6854 19.0872 13.5228 18.4412 15.0331 17.3815C15.0581 17.4057 15.0581 17.4057 15.0832 17.4299L19.3391 21.5498C19.6395 21.8406 20.0611 22.0063 20.4552 21.9998C20.8493 21.9934 21.2657 21.8387 21.556 21.5136C22.1618 20.8876 22.1457 19.9022 21.5198 19.2963L17.289 15.2007ZM9.66371 15.9906C6.11661 16.0485 3.18755 13.213 3.12963 9.66534C3.07172 6.11765 5.90668 3.18809 9.45378 3.13017C13.0009 3.07224 15.9299 5.90768 15.9879 9.45538C16.0458 13.0031 13.2108 15.9326 9.66371 15.9906Z" fill="black"/>
</svg>
