<svg width="122" height="21" viewBox="0 0 122 21" fill="none" xmlns="http://www.w3.org/2000/svg">
<path d="M104.612 4.78969L74.7727 4.78969V15.5589L104.612 15.5589V4.78969ZM106.104 17.0974L73.2808 17.0974V3.25123L106.104 3.25123V17.0974ZM107.596 13.1845L116.917 13.9854L119.381 10.1743L116.917 6.36318L107.596 7.16414V13.1845ZM117.67 4.75466L121.174 10.1743L117.67 15.5939L106.104 14.6001V5.74856L117.67 4.75466ZM1.66629 4.78968L1.66628 15.5589L31.5056 15.5589V4.78969L1.66629 4.78968ZM0.174317 3.25122L32.9976 3.25122V17.0974L0.174316 17.0974L0.174317 3.25122ZM34.4896 1.71276V18.6358L71.7888 18.6358V1.71276L34.4896 1.71276ZM32.9976 0.174301L73.2808 0.174303V20.1743L32.9976 20.1743V0.174301Z"/>
<path d="M102.374 16.5462V3.55171L99.3902 3.55171V16.5462H102.374Z"/>
<path d="M84.4705 16.5462V3.55171L81.4866 3.55171V16.5462H84.4705Z"/>
<path d="M93.4223 16.5462V3.55171L90.4384 3.55171V16.5462H93.4223Z"/>
</svg>
